<?xml version="1.0" encoding="UTF-8" standalone="no"?>
<svg
   version="1.1"
   viewBox="0 0 90 90"
   id="svg1"
   sodipodi:docname="func_hidden.svg"
   inkscape:version="1.3.2 (091e20ef0f, 2023-11-25, custom)"
   width="90"
   height="90"
   inkscape:export-filename="func_hidden.png"
   inkscape:export-xdpi="96"
   inkscape:export-ydpi="96"
   xmlns:inkscape="http://www.inkscape.org/namespaces/inkscape"
   xmlns:sodipodi="http://sodipodi.sourceforge.net/DTD/sodipodi-0.dtd"
   xmlns="http://www.w3.org/2000/svg"
   xmlns:svg="http://www.w3.org/2000/svg">
  <sodipodi:namedview
     id="namedview1"
     pagecolor="#ffffff"
     bordercolor="#000000"
     borderopacity="0.25"
     inkscape:showpageshadow="2"
     inkscape:pageopacity="0.0"
     inkscape:pagecheckerboard="0"
     inkscape:deskcolor="#d1d1d1"
     inkscape:zoom="7.375"
     inkscape:cx="15.864407"
     inkscape:cy="59.186441"
     inkscape:window-width="1920"
     inkscape:window-height="1080"
     inkscape:window-x="0"
     inkscape:window-y="0"
     inkscape:window-maximized="0"
     inkscape:current-layer="svg1" />
  <defs
     id="defs1">
    <style
       type="text/css"
       id="current-color-scheme">
            .ColorScheme-Text {
                color:#eff0f1;
            }
        </style>
  </defs>
  <path
     style="fill:#ffffff;fill-opacity:1;stroke:none;stroke-width:2.82628"
     class="ColorScheme-Text"
     d="M 10.330434,42.864043 A 33.91532,33.91532 0 0 1 15.055615,25.669021 L 30.257892,40.865778 28.248587,42.864043 15.800825,30.416281 A 31.089044,31.089044 0 0 0 13.15671,42.864043 31.089044,31.089044 0 0 0 44.245754,73.953087 31.089044,31.089044 0 0 0 59.370749,69.984155 l 2.058988,2.070027 A 33.91532,33.91532 0 0 1 44.245754,76.779363 33.91532,33.91532 0 0 1 10.330434,42.864043 Z M 27.050732,13.673904 A 33.91532,33.91532 0 0 1 44.245754,8.9487226 33.91532,33.91532 0 0 1 78.161074,42.864043 33.91532,33.91532 0 0 1 73.435893,60.059065 L 58.233616,44.862308 60.231882,42.864043 72.679644,55.317325 A 31.089044,31.089044 0 0 0 75.334798,42.864043 31.089044,31.089044 0 0 0 44.245754,11.774999 31.089044,31.089044 0 0 0 29.120759,15.743931 Z"
     id="path1" />
</svg>
